HIERARCHY
ROOT root
{
	OFFSET	0	13.1	24.9
	CHANNELS 6  Xposition Yposition Zposition Xrotation Yrotation Zrotation
	JOINT spine_1
	{
		OFFSET	0	9.99999	0
		CHANNELS 3  Xrotation Yrotation Zrotation
		JOINT spine_2
		{
			OFFSET	0	112	-10
			CHANNELS 3  Xrotation Yrotation Zrotation
			JOINT spine_3
			{
				OFFSET	0	206.5	19.3
				CHANNELS 3  Xrotation Yrotation Zrotation
				JOINT spine_4
				{
					OFFSET	0	110.4	14.6
					CHANNELS 3  Xrotation Yrotation Zrotation
					JOINT neck_1
					{
						OFFSET	0	71.8	-50.3
						CHANNELS 3  Xrotation Yrotation Zrotation
						JOINT neck_2
						{
							OFFSET	0	86.2	-25.8
							CHANNELS 3  Xrotation Yrotation Zrotation
							JOINT head_ee
							{
								OFFSET	0	179.8	-8.7
								CHANNELS 3  Xrotation Yrotation Zrotation
								End Site
								{
									OFFSET	1	0	0
								}
							}
						}
					}
					JOINT left_clavicle
					{
						OFFSET	-43.2	22.4	-70.8
						CHANNELS 3  Xrotation Yrotation Zrotation
						JOINT left_shoulder
						{
							OFFSET	-93.9	-5.79999	48.7
							CHANNELS 3  Xrotation Yrotation Zrotation
							JOINT left_elbow
							{
								OFFSET	-291.4	-30.8	15.2
								CHANNELS 3  Xrotation Yrotation Zrotation
								JOINT left_lowarm_twist
								{
									OFFSET	-110.7	-3.89999	13.6
									CHANNELS 3  Xrotation Yrotation Zrotation
									JOINT left_hand
									{
										OFFSET	-110.7	-3.89999	13.6
										CHANNELS 3  Xrotation Yrotation Zrotation
										JOINT left_ee
										{
											OFFSET	-80.8	-5.10001	12.1
											CHANNELS 3  Xrotation Yrotation Zrotation
											End Site
											{
												OFFSET	1	0	0
											}
										}
									}
								}
							}
						}
					}
					JOINT right_clavicle
					{
						OFFSET	43.2	22.4	-70.8
						CHANNELS 3  Xrotation Yrotation Zrotation
						JOINT right_shoulder
						{
							OFFSET	93.9	-5.79999	48.7
							CHANNELS 3  Xrotation Yrotation Zrotation
							JOINT right_elbow
							{
								OFFSET	291.4	-30.8	15.2
								CHANNELS 3  Xrotation Yrotation Zrotation
								JOINT right_lowarm_twist
								{
									OFFSET	110.7	-3.89999	13.6
									CHANNELS 3  Xrotation Yrotation Zrotation
									JOINT right_hand
									{
										OFFSET	110.7	-3.89999	13.6
										CHANNELS 3  Xrotation Yrotation Zrotation
										JOINT right_ee
										{
											OFFSET	80.8	-5.10001	12.1
											CHANNELS 3  Xrotation Yrotation Zrotation
											End Site
											{
												OFFSET	1	0	0
											}
										}
									}
								}
							}
						}
					}
				}
			}
		}
	}
	JOINT left_hip
	{
		OFFSET	-82.8	-127.5	0.300001
		CHANNELS 3  Xrotation Yrotation Zrotation
		JOINT left_knee
		{
			OFFSET	-28.2	-396.7	2.2
			CHANNELS 3  Xrotation Yrotation Zrotation
			JOINT left_ankle
			{
				OFFSET	-11.7	-411.3	35.4
				CHANNELS 3  Xrotation Yrotation Zrotation
				JOINT left_toes
				{
					OFFSET	0	-60	-88.6
					CHANNELS 3  Xrotation Yrotation Zrotation
					JOINT left_foot_ee
					{
						OFFSET	-22.5	-16.5	-42.2
						CHANNELS 3  Xrotation Yrotation Zrotation
						End Site
						{
							OFFSET	1	0	0
						}
					}
				}
			}
		}
	}
	JOINT right_hip
	{
		OFFSET	82.8	-127.5	0.300001
		CHANNELS 3  Xrotation Yrotation Zrotation
		JOINT right_knee
		{
			OFFSET	28.2	-396.7	2.2
			CHANNELS 3  Xrotation Yrotation Zrotation
			JOINT right_ankle
			{
				OFFSET	11.7	-411.3	35.4
				CHANNELS 3  Xrotation Yrotation Zrotation
				JOINT right_toes
				{
					OFFSET	0	-60	-88.6
					CHANNELS 3  Xrotation Yrotation Zrotation
					JOINT right_foot_ee
					{
						OFFSET	22.5	-16.5	-42.2
						CHANNELS 3  Xrotation Yrotation Zrotation
						End Site
						{
							OFFSET	1	0	0
						}
					}
				}
			}
		}
	}
}
MOTION
Frames: 13
Frame Time: 0.02
3177.02 653.055 -1669.29 0.860347606864 65.2232125292 1.01580092706 -1.14111 0.35646 1.83649 -1.13927 0.238898 1.85544 -1.12988 -0.193163 1.86076 -1.1347 0.103081 1.86791 -13.4408 14.5388 -17.3014 -13.6311 38.2929 -12.0171 -0.0 0.0 -0.0 -4.17229 24.5026 -2.76887 -19.2143 -23.0352 67.5841 0.270212 -7.62418 0.0180048 39.154 -0.305992 -4.89629 0.739796 11.1801 9.36484 -0.0 0.0 -0.0 10.2717 11.4231 -20.4076 18.5515 27.4217 -63.6799 2.43354 50.3156 -1.14308 14.8328 -0.282162 1.86848 5.73699 9.6667 -37.0526 0.0 0.0 0.0 30.0459 -5.24561 -9.69401 -7.51756 0.235739 1.12881 -17.1665 5.11513 2.58238 -16.2928 0.0 0.0 -0.0 0.0 -0.0 -17.5799 4.87435 -4.17504 -12.0167 -0.305336 -1.81549 34.6655 -21.6258 4.54079 -4.21531 0.0 0.0 0.0 0.0 0.0 
3132.46849488 646.156 -1672.32478026 0.944524093513 64.7537122483 1.2707823979 -1.23649 0.547678 1.85795 -1.23468 0.428364 1.88901 -1.21861 -0.0193502 1.93686 -1.22373 0.286727 1.91563 -9.54403 14.5211 -14.6071 -9.18072 37.1284 -10.9234 -0.0 0.0 -0.0 -1.31379 23.9676 0.991917 -21.4328 -22.665 62.6599 0.33023 -9.29071 0.0268329 39.4411 -0.320511 -4.93001 0.637659 13.2289 9.47995 -0.0 0.0 -0.0 11.1228 10.7577 -22.3055 17.5278 26.5107 -62.1528 2.25803 48.1965 -1.01009 15.5007 -0.283407 1.95377 5.0119 10.0945 -30.9588 0.0 0.0 0.0 32.3769 -5.59359 -9.75995 -19.2675 0.303635 2.92725 -8.67541 3.86675 1.2955 -13.1753 0.0 0.0 -0.0 0.0 -0.0 -19.1565 4.95044 -2.05832 -14.0568 -0.319086 -2.12821 38.5924 -24.1343 5.00413 -1.81463 0.0 0.0 0.0 0.0 0.0 
3100.63838601 646.815 -1675.72925026 1.55509251158 65.0342230432 0.3242141735 -1.36353 0.605843 2.01151 -1.36141 0.476645 2.04597 -1.34201 -0.0131146 2.10069 -1.34803 0.318742 2.07642 -4.71273 15.0149 -12.4804 -3.61944 36.8458 -10.5995 -0.0 0.0 -0.0 0.127542 23.5083 2.89366 -24.7969 -21.8875 59.7602 0.365659 -10.2673 0.0328507 39.2678 -0.311726 -4.90967 0.697781 14.9857 10.5114 -0.0 0.0 -0.0 11.6317 10.9215 -23.4443 16.0911 25.9248 -61.4559 2.15892 46.9165 -0.936947 15.402 -0.283286 1.94117 4.9708 12.3114 -29.4536 0.0 0.0 0.0 33.7811 -5.13901 -8.75637 -26.8346 0.152234 4.07775 -7.40715 3.85268 1.10393 -11.1557 0.0 0.0 -0.0 0.0 -0.0 -20.3271 5.94722 -1.36922 -15.4126 -0.322061 -2.33619 38.6335 -25.9493 5.06543 0.458137 -0.0 -0.0 0.0 0.0 0.0 
3100.60886281 646.815 -1675.36889901 1.57102416299 65.3043783341 0.306659701129 -1.36353 0.605843 2.01151 -1.36141 0.476645 2.04597 -1.34201 -0.0131146 2.10069 -1.34803 0.318742 2.07642 -4.71273 15.0149 -12.4804 -3.61944 36.8458 -10.5995 -0.0 0.0 -0.0 0.127542 23.5083 2.89366 -24.7969 -21.8875 59.7602 0.365659 -10.2673 0.0328507 39.2678 -0.311726 -4.90967 0.697781 14.9857 10.5114 -0.0 0.0 -0.0 11.6317 10.9215 -23.4443 16.0911 25.9248 -61.4559 2.15892 46.9165 -0.936947 15.402 -0.283286 1.94117 4.9708 12.3114 -29.4536 0.0 0.0 0.0 33.7811 -5.13901 -8.75637 -26.8346 0.152234 4.07775 -7.40715 3.85268 1.10393 -11.1557 0.0 0.0 -0.0 0.0 -0.0 -20.3271 5.94722 -1.36922 -15.4126 -0.322061 -2.33619 38.6335 -25.9493 5.06543 0.458137 -0.0 -0.0 0.0 0.0 0.0 
3003.45175927 637.103 -1677.23097672 1.19948474666 68.2227293373 -1.52764199039 -1.604 0.265506 2.31238 -1.60103 0.117866 2.32458 -1.59354 -0.437284 2.28614 -1.60083 -0.0708443 2.32649 -2.40561 15.5353 -11.2175 -0.994758 36.8228 -10.0976 -0.0 0.0 -0.0 2.73082 21.8252 6.41022 -25.0907 -22.6831 54.1191 0.717199 -19.5591 0.12362 39.8974 -0.343935 -4.98346 0.669673 19.1448 11.825 -0.0 0.0 -0.0 11.4094 12.5483 -22.9227 10.7908 23.781 -60.1672 1.89169 43.1354 -0.747798 20.7563 -0.258521 2.62435 4.37613 20.3092 -20.6885 0.0 0.0 0.0 35.3159 -5.96284 -1.42717 -42.0623 -0.603154 6.28454 8.47983 11.4004 -1.21368 -4.50624 0.0 0.0 -0.0 0.0 -0.0 -20.7173 8.34765 1.85786 -29.6699 -0.056567 -4.50233 42.0833 -25.9091 5.39548 8.35908 -0.0 -0.0 0.0 0.0 0.0 
2979.7214821 641.047 -1677.5653208 3.28271308125 67.7262055839 -4.00890606624 -1.52312 0.259958 2.45853 -1.51977 0.103037 2.47008 -1.51237 -0.482835 2.42465 -1.52057 -0.0939697 2.47044 -2.89023 14.9414 -11.1223 -1.64126 35.6921 -9.85283 -0.0 0.0 -0.0 2.85529 20.4192 6.54516 -24.2129 -23.84 53.8891 0.786169 -21.2781 0.147684 37.9807 -0.248423 -4.75775 0.492807 21.1407 11.4493 -0.0 0.0 -0.0 11.3697 13.5776 -22.8094 8.99997 22.9776 -60.3226 1.63248 38.9589 -0.577466 23.8014 -0.216006 3.01096 4.41103 24.5613 -18.5007 0.0 0.0 0.0 31.9278 -9.35696 1.80107 -40.7792 -0.517083 6.10701 12.9013 15.5436 -1.8318 -2.13926 0.0 0.0 -0.0 0.0 -0.0 -19.1998 12.6022 1.17684 -35.5511 0.208256 -5.36549 34.9138 -26.1392 4.68628 9.08503 -0.0 -0.0 0.0 0.0 0.0 
2979.73817032 641.047 -1677.95405081 3.26701208507 67.6134974358 -3.99193220666 -1.52312 0.259958 2.45853 -1.51977 0.103037 2.47008 -1.51237 -0.482835 2.42465 -1.52057 -0.0939697 2.47044 -2.89023 14.9414 -11.1223 -1.64126 35.6921 -9.85283 -0.0 0.0 -0.0 2.85529 20.4192 6.54516 -24.2129 -23.84 53.8891 0.786169 -21.2781 0.147684 37.9807 -0.248423 -4.75775 0.492807 21.1407 11.4493 -0.0 0.0 -0.0 11.3697 13.5776 -22.8094 8.99997 22.9776 -60.3226 1.63248 38.9589 -0.577466 23.8014 -0.216006 3.01096 4.41103 24.5613 -18.5007 0.0 0.0 0.0 31.9278 -9.35696 1.80107 -40.7792 -0.517083 6.10701 12.9013 15.5436 -1.8318 -2.13926 0.0 0.0 -0.0 0.0 -0.0 -19.1998 12.6022 1.17684 -35.5511 0.208256 -5.36549 34.9138 -26.1392 4.68628 9.08503 -0.0 -0.0 0.0 0.0 0.0 
2952.71906816 632.856 -1683.6043171 7.11542469704 67.357591962 -7.63189226473 -1.69063 0.199738 2.32286 -1.68763 0.0515643 2.33086 -1.68285 -0.506782 2.27571 -1.69005 -0.141117 2.32716 -5.48272 15.9862 -10.233 -4.74512 36.9784 -7.71282 -0.0 0.0 -0.0 3.02993 19.9102 6.78746 -22.2672 -24.718 53.4683 0.869794 -23.3095 0.179413 39.0426 -0.300403 -4.88318 0.661423 20.3779 12.2035 -0.0 0.0 -0.0 11.1271 12.9743 -22.2786 7.37981 22.1296 -59.6704 1.66688 39.5441 -0.599231 24.3174 -0.206768 3.07622 4.71722 25.8833 -19.786 0.0 0.0 0.0 30.3816 -8.90205 2.91713 -44.6901 -0.791782 6.642 18.8859 14.9077 -2.61509 -0.320852 0.0 0.0 -0.0 0.0 -0.0 -18.7124 11.2744 0.320795 -39.8354 0.456326 -5.97523 42.6269 -25.2189 5.4206 10.1695 -0.0 -0.0 0.0 0.0 0.0 
2934.46275795 642.887 -1686.74558154 8.26885359572 66.2691982439 -8.70943740384 -1.8583 0.110522 2.30985 -1.85533 -0.0366439 2.3122 -1.8542 -0.594727 2.23475 -1.86109 -0.234425 2.30058 -6.48608 15.5105 -11.5046 -5.82886 37.0129 -8.73562 -0.0 0.0 -0.0 3.43247 18.7408 7.36356 -20.3702 -25.4994 53.9988 0.889571 -23.7813 0.187314 38.8263 -0.289625 -4.85771 0.658707 20.9027 12.3677 -0.0 0.0 -0.0 11.0534 13.2623 -22.1057 5.58602 21.6061 -59.744 1.44622 35.6162 -0.464576 25.7259 -0.178563 3.25393 4.86087 27.5702 -19.7132 0.0 0.0 0.0 27.6208 -11.4739 4.95241 -43.4435 -0.700248 6.47349 22.6086 16.924 -3.096 0.811362 -0.0 -0.0 -0.0 0.0 -0.0 -17.4149 13.7487 -0.873802 -43.191 0.682158 -6.43912 39.4329 -25.7388 5.13738 10.2693 -0.0 -0.0 0.0 0.0 0.0 
2934.42490429 642.887 -1686.21136338 8.3103591099 66.3940606238 -8.75475479512 -1.8583 0.110522 2.30985 -1.85533 -0.0366439 2.3122 -1.8542 -0.594727 2.23475 -1.86109 -0.234425 2.30058 -6.48608 15.5105 -11.5046 -5.82886 37.0129 -8.73562 -0.0 0.0 -0.0 3.43247 18.7408 7.36356 -20.3702 -25.4994 53.9988 0.889571 -23.7813 0.187314 38.8263 -0.289625 -4.85771 0.658707 20.9027 12.3677 -0.0 0.0 -0.0 11.0534 13.2623 -22.1057 5.58602 21.6061 -59.744 1.44622 35.6162 -0.464576 25.7259 -0.178563 3.25393 4.86087 27.5702 -19.7132 0.0 0.0 0.0 27.6208 -11.4739 4.95241 -43.4435 -0.700248 6.47349 22.6086 16.924 -3.096 0.811362 -0.0 -0.0 -0.0 0.0 -0.0 -17.4149 13.7487 -0.873802 -43.191 0.682158 -6.43912 39.4329 -25.7388 5.13738 10.2693 -0.0 -0.0 0.0 0.0 0.0 
2910.91164986 649.636 -1680.01083895 9.39621518982 65.691654375 -10.3841097846 -2.0886 0.0568586 2.22942 -2.08584 -0.0850845 2.22852 -2.08666 -0.630193 2.13929 -2.09293 -0.28451 2.21193 -8.14309 16.1421 -10.7254 -7.88012 37.5965 -7.09968 -0.0 0.0 -0.0 3.73532 16.7724 7.79687 -17.3431 -26.7897 55.3569 0.982218 -25.9453 0.226274 38.8063 -0.288633 -4.85535 0.718403 21.4906 12.9286 -0.0 0.0 -0.0 10.989 13.3772 -21.9582 3.88375 20.6289 -59.401 1.38464 34.4448 -0.429232 26.7612 -0.155048 3.38409 4.8502 27.6786 -19.5744 0.0 0.0 0.0 24.7508 -14.5416 7.5602 -42.1336 -0.608058 6.29435 25.3096 17.0474 -3.42272 0.632335 -0.0 -0.0 -0.0 0.0 -0.0 -16.3564 16.8516 0.739388 -45.3878 0.844612 -6.73544 40.8095 -25.197 5.25159 9.81158 -0.0 -0.0 0.0 0.0 0.0 
2892.44795763 667.986 -1679.6429514 11.3515102362 64.4480702844 -12.0592482223 -2.22914 0.232847 2.10316 -2.22669 0.0985765 2.11371 -2.22043 -0.428648 2.07215 -2.22641 -0.0960868 2.11382 -9.03341 16.8772 -9.46985 -9.05706 38.0931 -5.25819 -0.0 0.0 -0.0 4.07488 15.0471 8.31559 -14.505 -27.4449 56.0536 1.11574 -28.9288 0.287819 38.9226 -0.294414 -4.86906 0.582761 20.1509 11.6465 -0.0 0.0 -0.0 10.8533 13.2573 -21.6575 3.22471 19.8857 -61.2181 1.09304 28.4329 -0.276923 27.0562 -0.147919 3.42109 4.95569 28.0334 -20.0554 0.0 0.0 0.0 17.6657 -14.5161 6.88611 -33.7047 -0.115569 5.09742 22.5589 19.649 -3.11955 -0.605669 0.0 0.0 -0.0 0.0 -0.0 -12.7079 20.0904 -0.565777 -48.0749 1.05868 -7.08927 42.0174 -20.721 5.229 8.94796 -0.0 -0.0 0.0 0.0 0.0 
2863.96897351 674.454 -1674.98610507 15.3535895903 64.6220328341 -15.2006836076 -2.4404 0.179584 1.84088 -2.43851 0.0621002 1.84857 -2.43444 -0.404961 1.80475 -2.43897 -0.114903 1.84604 -8.57214 17.0562 -8.65204 -8.55658 37.8751 -4.57594 -0.0 0.0 -0.0 4.37211 13.5455 8.78893 -12.8243 -26.0429 55.4381 1.23522 -31.4608 0.347923 38.9229 -0.294428 -4.86909 0.57919 19.5115 11.4 -0.0 0.0 -0.0 10.7929 12.0115 -21.552 2.22639 19.0434 -61.7902 0.904753 24.141 -0.193479 28.7393 -0.103595 3.63153 5.02914 28.1517 -20.4707 0.0 0.0 0.0 11.7493 -15.7645 6.7471 -29.2487 0.0721094 4.43955 24.7959 21.2281 -3.41612 -1.91159 0.0 0.0 -0.0 0.0 -0.0 -9.51119 23.1921 -0.921943 -49.5439 1.18268 -7.27842 41.9039 -15.9407 5.11545 8.47592 -0.0 -0.0 0.0 0.0 0.0 
